<?xml version="1.0" standalone="no"?>
<!DOCTYPE svg PUBLIC "-//W3C//DTD SVG 20010904//EN"
 "http://www.w3.org/TR/2001/REC-SVG-20010904/DTD/svg10.dtd">
<svg version="1.0" xmlns="http://www.w3.org/2000/svg"
 width="789.000000pt" height="789.000000pt" viewBox="0 0 789.000000 789.000000"
 preserveAspectRatio="xMidYMid meet">

<g transform="translate(0.000000,789.000000) scale(0.100000,-0.100000)"
fill="#000000" stroke="none">
<path d="M3310 3885 l0 -615 175 0 175 0 0 80 0 80 -85 0 -85 0 0 455 0 455
85 0 85 0 0 80 0 80 -175 0 -175 0 0 -615z"/>
<path d="M6770 4420 l0 -80 80 0 80 0 0 -455 0 -455 -80 0 -80 0 0 -80 0 -80
170 0 170 0 0 615 0 615 -170 0 -170 0 0 -80z"/>
<path d="M3969 4427 c-106 -30 -196 -110 -248 -221 -70 -149 -69 -359 1 -504
46 -93 97 -146 186 -189 73 -36 80 -38 176 -38 81 1 112 5 158 23 106 43 202
154 223 260 l7 32 -65 0 c-64 0 -66 -1 -72 -29 -11 -50 -61 -109 -116 -137
-145 -73 -313 -17 -384 130 -72 150 -48 375 53 479 62 65 104 82 202 82 75 0
91 -3 131 -27 58 -34 95 -77 110 -128 l12 -40 65 0 65 0 -7 32 c-21 105 -100
202 -206 252 -55 26 -79 31 -155 33 -52 2 -109 -3 -136 -10z"/>
<path d="M662 3958 l3 -473 220 0 c245 0 288 8 358 66 60 49 82 101 81 189 0
109 -47 187 -133 223 l-34 14 39 22 c61 34 88 81 92 162 7 125 -59 218 -181
254 -38 11 -102 15 -249 15 l-198 0 2 -472z m465 309 c35 -34 38 -42 38 -91 0
-66 -22 -101 -85 -133 -39 -20 -59 -23 -167 -23 l-123 0 0 146 0 145 150 -3
150 -3 37 -38z m-22 -379 c59 -32 88 -73 93 -131 6 -71 -16 -112 -71 -138 -35
-15 -66 -19 -189 -19 l-148 0 0 148 c0 82 3 152 8 156 4 5 68 6 142 4 99 -3
143 -8 165 -20z"/>
<path d="M1480 3955 l0 -476 63 3 62 3 3 473 2 472 -65 0 -65 0 0 -475z"/>
<path d="M6150 3955 l0 -475 60 0 60 0 0 133 0 133 34 33 33 32 129 -165 129
-165 78 0 c60 -1 76 2 71 12 -4 6 -76 98 -159 202 l-152 191 148 154 147 155
-71 3 -71 3 -158 -158 -158 -158 0 273 0 272 -60 0 -60 0 0 -475z"/>
<path d="M2018 4200 c-180 -31 -292 -219 -258 -436 29 -183 150 -294 321 -294
123 0 225 65 281 178 32 64 33 71 33 187 0 111 -2 125 -29 182 -63 138 -198
208 -348 183z m141 -124 c132 -69 163 -323 53 -440 -55 -58 -142 -72 -218 -36
-75 37 -114 119 -114 241 0 105 39 190 104 230 38 23 134 26 175 5z"/>
<path d="M2767 4200 c-95 -16 -168 -77 -216 -180 -23 -50 -26 -67 -26 -175 0
-109 2 -125 27 -177 53 -114 147 -172 278 -171 76 0 119 19 169 72 l33 36 -4
-90 c-5 -107 -23 -146 -83 -175 -50 -24 -150 -27 -201 -5 -20 8 -51 32 -70 52
l-34 37 -42 -30 c-23 -16 -43 -34 -45 -41 -7 -20 57 -82 115 -110 52 -26 66
-28 172 -28 106 0 120 2 173 28 31 16 69 44 83 63 52 67 53 80 54 502 l0 392
-60 0 -60 0 0 -52 0 -52 -32 36 c-58 62 -133 84 -231 68z m164 -133 c71 -48
107 -147 95 -261 -13 -124 -67 -187 -167 -194 -73 -5 -99 1 -139 34 -114 97
-101 349 23 424 47 29 143 28 188 -3z"/>
<path d="M4840 4197 c-99 -22 -170 -83 -219 -187 -23 -49 -26 -68 -26 -165 0
-129 16 -184 73 -260 74 -98 215 -139 347 -100 46 13 70 28 115 73 63 63 93
128 105 223 15 123 -36 284 -109 346 -76 64 -188 91 -286 70z m159 -122 c75
-39 115 -132 110 -258 -8 -169 -94 -253 -237 -232 -38 5 -55 15 -88 49 -49 52
-69 114 -68 211 1 111 34 181 109 226 37 23 134 25 174 4z"/>
<path d="M5619 4200 c-141 -24 -235 -130 -261 -293 -27 -177 48 -348 182 -411
35 -16 65 -21 135 -21 79 0 97 4 148 29 76 37 130 104 158 198 29 96 24 229
-13 310 -65 142 -198 213 -349 188z m140 -124 c42 -22 89 -80 103 -128 17 -58
16 -162 -1 -223 -21 -70 -83 -131 -145 -140 -141 -21 -227 64 -234 230 -6 126
24 203 97 252 40 27 135 32 180 9z"/>
</g>
</svg>
